<mxfile host="app.diagrams.net" modified="2023-12-19T05:12:42.692Z" agent="Mozilla/5.0 (Windows NT 10.0; Win64; x64) AppleWebKit/537.36 (KHTML, like Gecko) Chrome/120.0.0.0 Safari/537.36" etag="5pbiLF6NX7-DmI129DrM" version="22.1.11" type="device">
  <diagram name="Page-1" id="QSxSEcef5AFu9INZKdUs">
    <mxGraphModel dx="880" dy="468" grid="1" gridSize="10" guides="1" tooltips="1" connect="1" arrows="1" fold="1" page="1" pageScale="1" pageWidth="850" pageHeight="1100" math="0" shadow="0">
      <root>
        <mxCell id="0" />
        <mxCell id="1" parent="0" />
        <mxCell id="lfvt54emDJ42RaypE45g-49" value="" style="rounded=0;whiteSpace=wrap;html=1;" parent="1" vertex="1">
          <mxGeometry x="200" y="20" width="630" height="940" as="geometry" />
        </mxCell>
        <mxCell id="lfvt54emDJ42RaypE45g-5" value="" style="edgeStyle=orthogonalEdgeStyle;rounded=0;orthogonalLoop=1;jettySize=auto;html=1;" parent="1" source="lfvt54emDJ42RaypE45g-1" target="lfvt54emDJ42RaypE45g-2" edge="1">
          <mxGeometry relative="1" as="geometry">
            <Array as="points">
              <mxPoint x="425" y="160" />
              <mxPoint x="425" y="160" />
            </Array>
          </mxGeometry>
        </mxCell>
        <mxCell id="lfvt54emDJ42RaypE45g-1" value="&lt;font style=&quot;font-size: 15px;&quot; face=&quot;Times New Roman&quot;&gt;Start&lt;/font&gt;" style="ellipse;whiteSpace=wrap;html=1;align=center;" parent="1" vertex="1">
          <mxGeometry x="360" y="50" width="130" height="80" as="geometry" />
        </mxCell>
        <mxCell id="lfvt54emDJ42RaypE45g-6" value="" style="edgeStyle=orthogonalEdgeStyle;rounded=0;orthogonalLoop=1;jettySize=auto;html=1;" parent="1" source="lfvt54emDJ42RaypE45g-2" target="lfvt54emDJ42RaypE45g-3" edge="1">
          <mxGeometry relative="1" as="geometry" />
        </mxCell>
        <mxCell id="lfvt54emDJ42RaypE45g-2" value="&lt;font face=&quot;Times New Roman&quot; style=&quot;font-size: 15px;&quot;&gt;Input request Body&lt;/font&gt;" style="shape=parallelogram;perimeter=parallelogramPerimeter;whiteSpace=wrap;html=1;fixedSize=1;" parent="1" vertex="1">
          <mxGeometry x="340" y="160" width="160" height="60" as="geometry" />
        </mxCell>
        <mxCell id="lfvt54emDJ42RaypE45g-13" value="" style="edgeStyle=orthogonalEdgeStyle;rounded=0;orthogonalLoop=1;jettySize=auto;html=1;" parent="1" source="lfvt54emDJ42RaypE45g-3" edge="1">
          <mxGeometry relative="1" as="geometry">
            <mxPoint x="420" y="370" as="targetPoint" />
          </mxGeometry>
        </mxCell>
        <mxCell id="lfvt54emDJ42RaypE45g-18" style="edgeStyle=orthogonalEdgeStyle;rounded=0;orthogonalLoop=1;jettySize=auto;html=1;entryX=0;entryY=0.5;entryDx=0;entryDy=0;" parent="1" source="lfvt54emDJ42RaypE45g-3" target="lfvt54emDJ42RaypE45g-53" edge="1">
          <mxGeometry relative="1" as="geometry">
            <mxPoint x="610" y="295" as="targetPoint" />
          </mxGeometry>
        </mxCell>
        <mxCell id="lfvt54emDJ42RaypE45g-3" value="&lt;font style=&quot;font-size: 15px;&quot; face=&quot;Times New Roman&quot;&gt;Valid&lt;br&gt;request body&lt;/font&gt;" style="rhombus;whiteSpace=wrap;html=1;" parent="1" vertex="1">
          <mxGeometry x="345" y="250" width="150" height="90" as="geometry" />
        </mxCell>
        <mxCell id="lfvt54emDJ42RaypE45g-20" style="edgeStyle=orthogonalEdgeStyle;rounded=0;orthogonalLoop=1;jettySize=auto;html=1;entryX=0;entryY=0.5;entryDx=0;entryDy=0;" parent="1" source="lfvt54emDJ42RaypE45g-16" target="lfvt54emDJ42RaypE45g-19" edge="1">
          <mxGeometry relative="1" as="geometry" />
        </mxCell>
        <mxCell id="lfvt54emDJ42RaypE45g-55" style="edgeStyle=orthogonalEdgeStyle;rounded=0;orthogonalLoop=1;jettySize=auto;html=1;" parent="1" source="lfvt54emDJ42RaypE45g-16" target="lfvt54emDJ42RaypE45g-54" edge="1">
          <mxGeometry relative="1" as="geometry" />
        </mxCell>
        <mxCell id="lfvt54emDJ42RaypE45g-16" value="&lt;font face=&quot;Times New Roman&quot; style=&quot;font-size: 15px;&quot;&gt;&amp;nbsp;Flow name&lt;br&gt;exist&lt;/font&gt;" style="rhombus;whiteSpace=wrap;html=1;" parent="1" vertex="1">
          <mxGeometry x="350" y="370" width="140" height="100" as="geometry" />
        </mxCell>
        <mxCell id="lfvt54emDJ42RaypE45g-48" style="edgeStyle=orthogonalEdgeStyle;rounded=0;orthogonalLoop=1;jettySize=auto;html=1;exitX=1;exitY=0.5;exitDx=0;exitDy=0;" parent="1" source="lfvt54emDJ42RaypE45g-19" target="lfvt54emDJ42RaypE45g-43" edge="1">
          <mxGeometry relative="1" as="geometry">
            <mxPoint x="370" y="1130" as="targetPoint" />
            <mxPoint x="730" y="530" as="sourcePoint" />
            <Array as="points">
              <mxPoint x="790" y="420" />
              <mxPoint x="790" y="890" />
            </Array>
          </mxGeometry>
        </mxCell>
        <mxCell id="lfvt54emDJ42RaypE45g-19" value="&lt;font face=&quot;Times New Roman&quot; style=&quot;font-size: 15px;&quot;&gt;Return&lt;/font&gt;" style="rounded=0;whiteSpace=wrap;html=1;" parent="1" vertex="1">
          <mxGeometry x="610" y="395" width="120" height="50" as="geometry" />
        </mxCell>
        <mxCell id="lfvt54emDJ42RaypE45g-31" value="No" style="text;html=1;align=center;verticalAlign=middle;resizable=0;points=[];autosize=1;strokeColor=none;fillColor=none;" parent="1" vertex="1">
          <mxGeometry x="520" y="395" width="40" height="30" as="geometry" />
        </mxCell>
        <mxCell id="lfvt54emDJ42RaypE45g-32" value="Yes" style="text;html=1;align=center;verticalAlign=middle;resizable=0;points=[];autosize=1;strokeColor=none;fillColor=none;" parent="1" vertex="1">
          <mxGeometry x="370" y="470" width="40" height="30" as="geometry" />
        </mxCell>
        <mxCell id="lfvt54emDJ42RaypE45g-33" value="No" style="text;html=1;align=center;verticalAlign=middle;resizable=0;points=[];autosize=1;strokeColor=none;fillColor=none;" parent="1" vertex="1">
          <mxGeometry x="525" y="270" width="40" height="30" as="geometry" />
        </mxCell>
        <mxCell id="lfvt54emDJ42RaypE45g-34" value="Yes" style="text;html=1;align=center;verticalAlign=middle;resizable=0;points=[];autosize=1;strokeColor=none;fillColor=none;" parent="1" vertex="1">
          <mxGeometry x="380" y="340" width="40" height="30" as="geometry" />
        </mxCell>
        <mxCell id="KfDPiG62Cn7YPMFylQiV-10" style="edgeStyle=orthogonalEdgeStyle;rounded=0;orthogonalLoop=1;jettySize=auto;html=1;entryX=0.5;entryY=0;entryDx=0;entryDy=0;" edge="1" parent="1" source="lfvt54emDJ42RaypE45g-38" target="lfvt54emDJ42RaypE45g-43">
          <mxGeometry relative="1" as="geometry" />
        </mxCell>
        <mxCell id="lfvt54emDJ42RaypE45g-38" value="&lt;font face=&quot;Times New Roman&quot;&gt;&lt;span style=&quot;font-size: 15px;&quot;&gt;Insert data&lt;/span&gt;&lt;/font&gt;" style="rounded=0;whiteSpace=wrap;html=1;" parent="1" vertex="1">
          <mxGeometry x="350" y="740" width="140" height="70" as="geometry" />
        </mxCell>
        <mxCell id="lfvt54emDJ42RaypE45g-43" value="&lt;font face=&quot;Times New Roman&quot;&gt;&lt;span style=&quot;font-size: 15px;&quot;&gt;End&lt;/span&gt;&lt;/font&gt;" style="ellipse;whiteSpace=wrap;html=1;align=center;" parent="1" vertex="1">
          <mxGeometry x="355" y="850" width="130" height="80" as="geometry" />
        </mxCell>
        <mxCell id="lfvt54emDJ42RaypE45g-47" value="" style="endArrow=classic;html=1;rounded=0;entryX=1;entryY=0.5;entryDx=0;entryDy=0;exitX=1;exitY=0.5;exitDx=0;exitDy=0;" parent="1" source="lfvt54emDJ42RaypE45g-53" target="lfvt54emDJ42RaypE45g-43" edge="1">
          <mxGeometry width="50" height="50" relative="1" as="geometry">
            <mxPoint x="730" y="295" as="sourcePoint" />
            <mxPoint x="540" y="980" as="targetPoint" />
            <Array as="points">
              <mxPoint x="790" y="295" />
              <mxPoint x="790" y="780" />
              <mxPoint x="790" y="890" />
            </Array>
          </mxGeometry>
        </mxCell>
        <mxCell id="lfvt54emDJ42RaypE45g-53" value="&lt;font face=&quot;Times New Roman&quot; style=&quot;font-size: 15px;&quot;&gt;Return&lt;/font&gt;" style="rounded=0;whiteSpace=wrap;html=1;" parent="1" vertex="1">
          <mxGeometry x="610" y="270" width="120" height="50" as="geometry" />
        </mxCell>
        <mxCell id="lfvt54emDJ42RaypE45g-60" style="edgeStyle=orthogonalEdgeStyle;rounded=0;orthogonalLoop=1;jettySize=auto;html=1;entryX=0;entryY=0.5;entryDx=0;entryDy=0;" parent="1" source="lfvt54emDJ42RaypE45g-54" target="lfvt54emDJ42RaypE45g-58" edge="1">
          <mxGeometry relative="1" as="geometry" />
        </mxCell>
        <mxCell id="KfDPiG62Cn7YPMFylQiV-3" style="edgeStyle=orthogonalEdgeStyle;rounded=0;orthogonalLoop=1;jettySize=auto;html=1;" edge="1" parent="1" source="lfvt54emDJ42RaypE45g-54" target="KfDPiG62Cn7YPMFylQiV-2">
          <mxGeometry relative="1" as="geometry" />
        </mxCell>
        <mxCell id="lfvt54emDJ42RaypE45g-54" value="&lt;font face=&quot;Times New Roman&quot; style=&quot;font-size: 15px;&quot;&gt;&amp;nbsp;Approval Flow type&lt;br&gt;&lt;/font&gt;" style="rhombus;whiteSpace=wrap;html=1;" parent="1" vertex="1">
          <mxGeometry x="341.25" y="510" width="157.5" height="70" as="geometry" />
        </mxCell>
        <mxCell id="lfvt54emDJ42RaypE45g-57" value="Static" style="text;html=1;align=center;verticalAlign=middle;resizable=0;points=[];autosize=1;strokeColor=none;fillColor=none;" parent="1" vertex="1">
          <mxGeometry x="370" y="590" width="50" height="30" as="geometry" />
        </mxCell>
        <mxCell id="lfvt54emDJ42RaypE45g-58" value="&lt;font face=&quot;Times New Roman&quot; style=&quot;font-size: 15px;&quot;&gt;Return&lt;/font&gt;" style="rounded=0;whiteSpace=wrap;html=1;" parent="1" vertex="1">
          <mxGeometry x="610" y="520" width="120" height="50" as="geometry" />
        </mxCell>
        <mxCell id="lfvt54emDJ42RaypE45g-61" value="Dynamic" style="text;html=1;align=center;verticalAlign=middle;resizable=0;points=[];autosize=1;strokeColor=none;fillColor=none;" parent="1" vertex="1">
          <mxGeometry x="510" y="520" width="70" height="30" as="geometry" />
        </mxCell>
        <mxCell id="KfDPiG62Cn7YPMFylQiV-7" style="edgeStyle=orthogonalEdgeStyle;rounded=0;orthogonalLoop=1;jettySize=auto;html=1;" edge="1" parent="1" source="KfDPiG62Cn7YPMFylQiV-2" target="KfDPiG62Cn7YPMFylQiV-5">
          <mxGeometry relative="1" as="geometry" />
        </mxCell>
        <mxCell id="KfDPiG62Cn7YPMFylQiV-9" style="edgeStyle=orthogonalEdgeStyle;rounded=0;orthogonalLoop=1;jettySize=auto;html=1;" edge="1" parent="1" source="KfDPiG62Cn7YPMFylQiV-2" target="lfvt54emDJ42RaypE45g-38">
          <mxGeometry relative="1" as="geometry" />
        </mxCell>
        <mxCell id="KfDPiG62Cn7YPMFylQiV-2" value="&lt;font face=&quot;Times New Roman&quot; style=&quot;font-size: 15px;&quot;&gt;Empid exist&lt;br&gt;in hierarchy&lt;br&gt;&lt;/font&gt;" style="rhombus;whiteSpace=wrap;html=1;" vertex="1" parent="1">
          <mxGeometry x="341.25" y="620" width="157.5" height="70" as="geometry" />
        </mxCell>
        <mxCell id="KfDPiG62Cn7YPMFylQiV-5" value="&lt;font face=&quot;Times New Roman&quot; style=&quot;font-size: 15px;&quot;&gt;Return&lt;/font&gt;" style="rounded=0;whiteSpace=wrap;html=1;" vertex="1" parent="1">
          <mxGeometry x="610" y="630" width="120" height="50" as="geometry" />
        </mxCell>
        <mxCell id="KfDPiG62Cn7YPMFylQiV-13" value="" style="endArrow=none;html=1;rounded=0;exitX=1;exitY=0.5;exitDx=0;exitDy=0;" edge="1" parent="1" source="lfvt54emDJ42RaypE45g-58">
          <mxGeometry width="50" height="50" relative="1" as="geometry">
            <mxPoint x="400" y="500" as="sourcePoint" />
            <mxPoint x="790" y="545" as="targetPoint" />
            <Array as="points" />
          </mxGeometry>
        </mxCell>
        <mxCell id="KfDPiG62Cn7YPMFylQiV-14" value="" style="endArrow=none;html=1;rounded=0;exitX=1;exitY=0.5;exitDx=0;exitDy=0;" edge="1" parent="1">
          <mxGeometry width="50" height="50" relative="1" as="geometry">
            <mxPoint x="730" y="655" as="sourcePoint" />
            <mxPoint x="790" y="655" as="targetPoint" />
            <Array as="points" />
          </mxGeometry>
        </mxCell>
        <mxCell id="KfDPiG62Cn7YPMFylQiV-15" value="Yes" style="text;html=1;align=center;verticalAlign=middle;resizable=0;points=[];autosize=1;strokeColor=none;fillColor=none;" vertex="1" parent="1">
          <mxGeometry x="525" y="620" width="40" height="30" as="geometry" />
        </mxCell>
        <mxCell id="KfDPiG62Cn7YPMFylQiV-16" value="No" style="text;html=1;align=center;verticalAlign=middle;resizable=0;points=[];autosize=1;strokeColor=none;fillColor=none;" vertex="1" parent="1">
          <mxGeometry x="370" y="690" width="40" height="30" as="geometry" />
        </mxCell>
      </root>
    </mxGraphModel>
  </diagram>
</mxfile>
